<?xml version="1.0" standalone="no"?><!DOCTYPE svg PUBLIC "-//W3C//DTD SVG 1.1//EN" "http://www.w3.org/Graphics/SVG/1.1/DTD/svg11.dtd"><svg t="1534918339371" class="icon" style="" viewBox="0 0 1024 1024" version="1.1" xmlns="http://www.w3.org/2000/svg" p-id="4738" xmlns:xlink="http://www.w3.org/1999/xlink" width="16" height="16"><defs><style type="text/css"></style></defs><path d="M255.4 319v-85.3h87.7V319h-87.7zM528.8 234.7V320h-87.7v-85.3h87.7zM344.8 373v84.6h-87.6V373h87.6zM439.4 458.6V374H527v84.6h-87.6zM255.8 597.3v-86h85.7v86h-85.7zM441.9 509.4h84.6V597h-84.6v-87.6zM257.6 649.4h84.7v87.7h-84.7v-87.7zM744.5 601.7C653.5 599.4 578 673 578 763.9c0 88.1 72.9 161.3 161.2 161.9 88.9 0.6 161.9-70.9 163.1-159.5 1.2-89.4-68.6-162.3-157.8-164.6z m-4.3 49.4c25.8 0 46.6 20.9 46.6 46.6 0 25.8-20.9 46.6-46.6 46.6-25.8 0-46.6-20.9-46.6-46.6 0-25.7 20.9-46.6 46.6-46.6zM829 851.6H651.4v-34.7c18.2-28.7 50.8-47.8 88.1-47.8 38.2 0 71.6 20.1 89.5 49.9v32.6z" p-id="4739"></path><path d="M665.3 540.3c0.1-28.6 0.1-238.4 0.1-335.9 0-86.4-10.7-108.3-108.6-108.3-36.4 0-72.7-0.1-109.1-0.1-86.6-0.2-176.2-0.3-264.2 0.5-35.5 0.3-64.5 29.5-64.7 65.2-0.5 156.4-0.4 315.5-0.4 469.3l0.1 243.6h413.8c-14.6-27.2-23.6-56.4-26.7-87H205.3V183.4h377.1v405.4c24.4-22 52.1-38.1 82.9-48.5z" p-id="4740"></path><path d="M526.5 674.4V650h-84.6v87.6h68.3c2.5-21.9 7.9-43.1 16.3-63.2z" p-id="4741"></path></svg>