<?xml version="1.0" standalone="no"?><!DOCTYPE svg PUBLIC "-//W3C//DTD SVG 1.1//EN" "http://www.w3.org/Graphics/SVG/1.1/DTD/svg11.dtd"><svg t="1534918601371" class="icon" style="" viewBox="0 0 1024 1024" version="1.1" xmlns="http://www.w3.org/2000/svg" p-id="7231" xmlns:xlink="http://www.w3.org/1999/xlink" width="16" height="16"><defs><style type="text/css"></style></defs><path d="M321 640H129c-35.3 0-64 28.7-64 64v192c0 35.3 28.7 64 64 64h192c35.3 0 64-28.7 64-64V704c0-35.3-28.7-64-64-64zM896 640H704c-35.3 0-64 28.7-64 64v192c0 35.3 28.7 64 64 64h192c35.3 0 64-28.7 64-64V704c0-35.3-28.7-64-64-64zM256 512h512v128h64V512c0-35.3-28.7-64-64-64H544v-64h64c35.3 0 64-28.7 64-64V128c0-35.3-28.7-64-64-64H416c-35.3 0-64 28.7-64 64v192c0 35.3 28.7 64 64 64h64v64H256c-35.3 0-64 28.7-64 64v128h64V512z m160-192V128h192v192H416z" fill="" p-id="7232"></path></svg>